<svg xmlns="http://www.w3.org/2000/svg" viewBox="0 0 64 64" id="buffalo"><path fill="#646467" d="M57 26v2H52a7.85 7.85 0 0 1-4-1.08 6 6 0 0 0-3.14-5.2 4.52 4.52 0 0 1-.77-.52 1.07 1.07 0 0 1-.23-.2H50a6.92 6.92 0 0 0 4-1.25A8 8 0 0 1 57 26zM20.14 21a1.07 1.07 0 0 1-.23.2 4.52 4.52 0 0 1-.77.52A6 6 0 0 0 16 26.92 7.85 7.85 0 0 1 12 28H7V26a8 8 0 0 1 3-6.25A6.92 6.92 0 0 0 14 21zM44 51a5.94 5.94 0 0 1-1.76 4.24 5.75 5.75 0 0 1-1.24.95A5.86 5.86 0 0 1 38 57H26a5.86 5.86 0 0 1-3-.81 6 6 0 0 1-1.24-9.43A5.69 5.69 0 0 1 23 45.81 5.89 5.89 0 0 1 26 45H38a5.89 5.89 0 0 1 3 .81A6 6 0 0 1 44 51z"></path><path fill="#87868a" d="M48,26.92v7.55a6,6,0,0,1-3.24,5.32,7.31,7.31,0,0,0-.76.46V51a6,6,0,0,0-3-5.19A5.89,5.89,0,0,0,38,45H26a5.89,5.89,0,0,0-3,.81,5.69,5.69,0,0,0-1.23.95A5.94,5.94,0,0,0,20,51V40.25a7.31,7.31,0,0,0-.76-.46A6,6,0,0,1,16,34.47V26.92a6,6,0,0,1,3.14-5.2,4.52,4.52,0,0,0,.77-.52,1.07,1.07,0,0,0,.23-.2.75.75,0,0,0,.14-.12A5.93,5.93,0,0,0,22,16.64V15a1.66,1.66,0,0,1,0-.32,1.9,1.9,0,0,1,.24-.68A2,2,0,0,1,24,13H40a2,2,0,0,1,1.73,1,1.9,1.9,0,0,1,.24.68A1.66,1.66,0,0,1,42,15v1.64a5.93,5.93,0,0,0,1.72,4.24.75.75,0,0,0,.14.12,1.07,1.07,0,0,0,.23.2,4.52,4.52,0,0,0,.77.52A6,6,0,0,1,48,26.92Z"></path><circle cx="25.5" cy="29.5" r="1.5" fill="#281111"></circle><circle cx="38.5" cy="29.5" r="1.5" fill="#281111"></circle><path fill="#434347" d="M22.27 14a1.9 1.9 0 0 0-.24.68A1.66 1.66 0 0 0 22 15v1.64a5.93 5.93 0 0 1-1.72 4.24.75.75 0 0 1-.14.12H14a6.92 6.92 0 0 1-4-1.25 7.27 7.27 0 0 1-1-.8A7 7 0 0 1 7 14V7l2.39 4.79A4 4 0 0 0 13 14zM57 7v7A7 7 0 0 1 55 19a7.27 7.27 0 0 1-1 .8A6.92 6.92 0 0 1 50 21H43.86a.75.75 0 0 1-.14-.12A5.93 5.93 0 0 1 42 16.64V15a1.66 1.66 0 0 0 0-.32 1.9 1.9 0 0 0-.24-.68H51a4 4 0 0 0 3.58-2.21z"></path><circle cx="27.5" cy="51.5" r="1.5" fill="#281111"></circle><circle cx="36.5" cy="51.5" r="1.5" fill="#281111"></circle><path fill="#281111" d="M57 29H52a8.84 8.84 0 0 1-4.51-1.22 1 1 0 0 1-.49-.85 5 5 0 0 0-2.62-4.33 5.64 5.64 0 0 1-.93-.63 1 1 0 0 1-.35-.63l0-.13a1 1 0 0 1 .22-.83 1 1 0 0 1 .76-.38H50a5.93 5.93 0 0 0 3.42-1.07 1 1 0 0 1 1.19 0A8.93 8.93 0 0 1 58 26v2A1 1 0 0 1 57 29zm-8-2.7a6.84 6.84 0 0 0 3 .7h4V26a7 7 0 0 0-2.11-5A7.94 7.94 0 0 1 50 22H46.9A7.05 7.05 0 0 1 49 26.3zM12 29H7a1 1 0 0 1-1-1V26a8.93 8.93 0 0 1 3.39-7 1 1 0 0 1 1.19 0A5.93 5.93 0 0 0 14 20h5.94a1 1 0 0 1 1 1.15v.06l0 .13a1 1 0 0 1-.35.63 5.32 5.32 0 0 1-.94.63A5 5 0 0 0 17 26.93a1 1 0 0 1-.49.85A8.84 8.84 0 0 1 12 29zM8 27h4a6.84 6.84 0 0 0 3-.7A7.05 7.05 0 0 1 17.1 22H14a7.94 7.94 0 0 1-3.89-1A7 7 0 0 0 8 26z"></path><path fill="#281111" d="M20.14 22H14a7.88 7.88 0 0 1-4.56-1.43 8.59 8.59 0 0 1-1.1-.91A8 8 0 0 1 6 14V7a1 1 0 0 1 .77-1 1 1 0 0 1 1.12.52l2.39 4.79A3 3 0 0 0 13 13h1a1 1 0 0 1 0 2H13A5 5 0 0 1 8.5 12.24l-.5-1V14a5.93 5.93 0 0 0 1.76 4.24 5.33 5.33 0 0 0 .83.69A5.87 5.87 0 0 0 14 20h5.74A5 5 0 0 0 21 16.64V15H18a1 1 0 0 1 0-2h4.27a1 1 0 0 1 .86 1.51 1 1 0 0 0-.11.33A.7.7 0 0 0 23 15v1.64a7 7 0 0 1-2 5 1.5 1.5 0 0 1-.33.26A1 1 0 0 1 20.14 22zM50 22H43.86a1 1 0 0 1-.51-.14 1.86 1.86 0 0 1-.34-.28 6.9 6.9 0 0 1-2-4.94V15a.84.84 0 0 0 0-.12 1.14 1.14 0 0 0-.12-.37A1 1 0 0 1 41.73 13H51a3 3 0 0 0 2.69-1.66l2.39-4.79A1 1 0 0 1 58 7v7a8 8 0 0 1-2.34 5.66 9.21 9.21 0 0 1-1.09.91A7.93 7.93 0 0 1 50 22zm-5.74-2H50a5.93 5.93 0 0 0 3.42-1.07 5.74 5.74 0 0 0 .82-.69A5.93 5.93 0 0 0 56 14V11.24l-.5 1A5 5 0 0 1 51 15H43v1.64A5 5 0 0 0 44.26 20zM32 58H26a6.92 6.92 0 0 1-3.51-1A7 7 0 0 1 19 51a6.89 6.89 0 0 1 2.06-5A6.89 6.89 0 0 1 26 44H38a6.93 6.93 0 0 1 3.52 1A7 7 0 0 1 45 51a6.89 6.89 0 0 1-2.06 5 6.73 6.73 0 0 1-1.45 1.11 1.07 1.07 0 0 1-1.43-.33.94.94 0 0 1 .29-1.32l.1 0a5.07 5.07 0 0 0 1.08-.83A4.92 4.92 0 0 0 43 51a5 5 0 0 0-2.49-4.33A5 5 0 0 0 38 46H26a4.9 4.9 0 0 0-2.5.67 4.54 4.54 0 0 0-1 .79A4.93 4.93 0 0 0 21 51a5 5 0 0 0 2.5 4.32A4.84 4.84 0 0 0 26 56h6a1 1 0 0 1 0 2z"></path><path fill="#281111" d="M37 58H36a1 1 0 0 1 0-2h1a1 1 0 0 1 0 2zM44 52a1 1 0 0 1-1-1 5 5 0 0 0-2.49-4.33A5 5 0 0 0 38 46H26a4.9 4.9 0 0 0-2.5.67 4.54 4.54 0 0 0-1 .79A4.93 4.93 0 0 0 21 51a1 1 0 0 1-2 0V40.8l-.23-.13A7 7 0 0 1 15 34.47V26.92a7 7 0 0 1 3.66-6.08 3.62 3.62 0 0 0 .61-.41l.11-.08a1 1 0 0 1 .18-.17A4.93 4.93 0 0 0 21 16.64V15a2.87 2.87 0 0 1 .05-.52 2.82 2.82 0 0 1 .36-1A3 3 0 0 1 24 12H40a3 3 0 0 1 2.59 1.5 2.83 2.83 0 0 1 .37 1A3.08 3.08 0 0 1 43 15v1.64a4.91 4.91 0 0 0 1.42 3.52v0a1 1 0 0 1 .19.17l.11.08a4 4 0 0 0 .6.41A7 7 0 0 1 49 26.91V30a1 1 0 0 1-2 0V26.92a5 5 0 0 0-2.62-4.32 6.31 6.31 0 0 1-.89-.6 2.17 2.17 0 0 1-.29-.24L43 21.58a6.9 6.9 0 0 1-2-4.94V15a.84.84 0 0 0 0-.12 1.14 1.14 0 0 0-.12-.37A1 1 0 0 0 40 14H24a1 1 0 0 0-.87.5 1.13 1.13 0 0 0-.11.34A.7.7 0 0 0 23 15v1.64a7 7 0 0 1-2 5l-.18.16a2.17 2.17 0 0 1-.29.24 5.87 5.87 0 0 1-.9.6A5 5 0 0 0 17 26.93v7.54a5 5 0 0 0 2.7 4.43c.31.17.6.34.88.53a1 1 0 0 1 .42.82v5.86l.06-.06A6.89 6.89 0 0 1 26 44H38a7 7 0 0 1 5 2.1V40.25a1 1 0 0 1 .42-.82 9.52 9.52 0 0 1 .87-.52A5 5 0 0 0 47 34.47V34a1 1 0 0 1 2 0v.47a7 7 0 0 1-3.78 6.21L45 40.8V51A1 1 0 0 1 44 52zM19.63 20.14zm24.74 0z"></path></svg>