<svg xmlns="http://www.w3.org/2000/svg" width="56" height="70" fill="none" viewBox="0 0 56 70">
  <path fill="#000" d="M16.977 43.074c0 2.75-4.125 2.75-4.125 0s4.125-2.75 4.125 0Zm21.5 0c0 2.75-4.125 2.75-4.125 0s4.125-2.75 4.125 0ZM26.203 53.309a3.154 3.154 0 0 0 3.149-3.148c0-.278-.223-.5-.5-.5-.278 0-.5.222-.5.5a2.152 2.152 0 0 1-2.149 2.148 2.152 2.152 0 0 1-2.148-2.148c0-.278-.223-.5-.5-.5-.278 0-.5.222-.5.5a3.154 3.154 0 0 0 3.148 3.148Z"/>
  <path fill="#000" d="M13.492 8.371a.998.998 0 0 0 .125-1.406.994.994 0 0 0-1.406-.125C7.05 11.145-4.211 23.918 2.68 49.402a2.206 2.206 0 0 0 2.136 1.633c.63 0 1.235-.274 1.645-.766.828-.988 2.004-1.54 2.793-1.82.566 1.605 1.476 3.36 2.973 4.941 2.285 2.422 5.433 3.945 9.386 4.555-3.605 4.5-3.805 10.219-3.808 10.484-.012.55.422 1.008.976 1.023h.024c.539 0 .984-.43 1-.972 0-.055.172-4.872 2.98-8.778.633 1.285 1.727 2.5 3.414 2.5 1.711 0 2.758-1.27 3.34-2.617 2.887 3.926 3.059 8.836 3.059 8.89a1 1 0 0 0 1 .973h.023c.55-.015.988-.472.977-1.023-.008-.27-.207-6.094-3.915-10.613 7.079-1.309 10.407-5.422 11.97-8.977 1.05.989 2.75 2.2 4.793 2.2.078 0 .156 0 .238-.004.473-.024 1.578-.075 3.422-4.422 1.117-2.64 2.14-6.012 2.87-9.492 4.829-22.945-4.784-30.458-9.144-32.622C32.516-1.622 22.637.89 16.52 4.074a1 1 0 0 0 .922 1.773c5.703-2.969 14.934-5.305 26.5.438 7.188 3.57 9 11.586 9.254 17.684.496 11.93-4.262 23.91-5.734 25.062h-.016c-1.832 0-3.41-1.575-4.035-2.286.289-.996.445-1.867.527-2.511a7.587 7.587 0 0 0 1.973.273 1 1 0 1 0 0-2c-7.32 0-10.703-13.94-10.734-14.082a1.004 1.004 0 0 0-.852-.762.986.986 0 0 0-1.011.54c-1.899 3.718-1.43 6.753-.68 8.668-6.238-2.286-8.977-8.692-9.008-8.762a.997.997 0 0 0-1.101-.602 1 1 0 0 0-.825.942c-.14 3.335.672 5.75 1.5 7.316-8.312-2.43-10.105-11.457-10.184-11.875a1.007 1.007 0 0 0-1.09-.813.998.998 0 0 0-.89 1.024c.414 13.465-1.852 17.766-3.238 19.133-.664.656-1.2.672-1.239.672a.999.999 0 0 0-1.093.851.998.998 0 0 0 .843 1.133c.032.004.114.016.239.016.367 0 1.101-.094 1.941-.664.05.386.125.816.219 1.265-1.028.352-2.621 1.078-3.781 2.465-.016.02-.055.066-.157.047a.21.21 0 0 1-.164-.152c-2.187-8.11-5.715-28.31 8.887-40.496h-.001Zm12.711 51.828c-1.004 0-1.59-1.207-1.867-2.012.48.024.957.051 1.453.051.742 0 1.445-.035 2.129-.082-.242.836-.762 2.043-1.715 2.043ZM13.055 29.535c1.953 3.621 5.637 7.91 12.305 8.7.434.046.84-.184 1.023-.575a.998.998 0 0 0-.226-1.152c-.074-.07-1.274-1.223-1.969-3.637 2 2.61 5.336 5.684 10.305 6.566a1.01 1.01 0 0 0 1.047-.492.991.991 0 0 0-.117-1.148c-.024-.027-1.942-2.297-1.29-5.89 1.223 3.55 3.747 9.222 7.895 11.55a13.471 13.471 0 0 1-.55 3.016.944.944 0 0 0-.137.445c-1.301 3.89-5.004 9.328-15.547 9.328-5.375 0-9.442-1.418-12.086-4.21-3.567-3.766-3.332-8.848-3.332-8.9v-.01c1.59-2.723 2.5-7.321 2.679-13.591Z"/>
</svg>
